<?xml version="1.0" encoding="UTF-8"?><svg id="Layer_2" style="fill:#008255" xmlns="http://www.w3.org/2000/svg" viewBox="0 0 25.266 31.082"><g id="Ikoner"><g><path d="M12.659,26.745c2.264,0,4.106-1.865,4.106-4.157,0-2.264-1.842-4.105-4.106-4.105-2.292,0-4.158,1.842-4.158,4.105s1.904,4.157,4.158,4.157Zm0-6.763c1.437,0,2.606,1.169,2.606,2.605,0,1.465-1.169,2.657-2.606,2.657s-2.658-1.217-2.658-2.657,1.192-2.605,2.658-2.605Z"/><path d="M4.958,14.146v-4.971c0-4.231,3.443-7.674,7.674-7.674s7.674,3.443,7.674,7.674v1.233h1.5v-1.233C21.807,4.116,17.691,0,12.633,0S3.458,4.116,3.458,9.174v4.971H0V31.082H25.266V14.146H4.958Zm18.807,15.436H1.5V15.646H23.766v13.936Z"/></g></g></svg>